<?xml version="1.0" standalone="no"?>
<!DOCTYPE svg PUBLIC "-//W3C//DTD SVG 20010904//EN"
 "http://www.w3.org/TR/2001/REC-SVG-20010904/DTD/svg10.dtd">
<svg version="1.0" xmlns="http://www.w3.org/2000/svg"
 width="1566.000000pt" height="100.000000pt" viewBox="0 0 1566.000000 100.000000"
 preserveAspectRatio="xMidYMid meet">
<metadata>
Created by potrace 1.16, written by Peter Selinger 2001-2019
</metadata>
<g transform="translate(0.000000,100.000000) scale(0.100000,-0.100000)"
fill="#FF66C4" stroke="none">
<path d="M6593 988 c-10 -14 -109 -203 -293 -563 -62 -121 -132 -257 -156
-302 -24 -44 -44 -84 -44 -87 0 -3 10 -6 23 -6 19 0 37 30 130 215 l107 215
183 0 182 0 112 -212 111 -213 101 -3 c56 -1 101 1 101 6 0 13 -490 924 -508
945 -18 20 -36 22 -49 5z m34 -339 c40 -74 72 -137 73 -141 0 -5 -70 -8 -155
-8 -104 0 -155 4 -155 11 0 8 107 220 137 272 12 20 32 -8 100 -134z M11407
976 c-97 -29 -152 -67 -192 -131 -27 -44 -30 -56 -30 -136 0 -99 10 -119 84
-176 54 -42 145 -70 306 -93 171 -26 184 -29 227 -53 40 -22 78 -84 78 -128 0
-82 -50 -154 -132 -189 -105 -46 -327 -37 -509 20 -52 16 -61 16 -66 3 -9 -23
7 -32 113 -59 131 -34 326 -43 433 -20 144 31 252 100 296 191 12 25 21 67 23
115 4 96 -21 150 -91 197 -61 41 -131 61 -281 79 -151 19 -197 29 -248 55 -74
38 -101 159 -51 228 10 14 46 40 78 56 58 29 64 30 190 29 97 -1 153 -7 224
-24 77 -18 95 -20 102 -9 11 19 3 24 -71 44 -46 12 -116 19 -235 21 -157 4
-176 2 -248 -20z M13665 981 c-140 -40 -278 -146 -338 -258 -80 -150 -69 -342
29 -488 149 -225 492 -302 755 -170 81 41 178 127 216 193 60 101 80 253 49
368 -45 171 -197 310 -391 359 -80 20 -243 19 -320 -4z m285 -32 c90 -27 180
-128 216 -244 22 -67 30 -268 14 -348 -27 -142 -112 -257 -218 -297 -82 -31
-215 -25 -288 13 -118 60 -187 194 -200 387 -17 254 98 462 277 500 51 10 145
5 199 -11z M0 955 c0 -12 29 -15 188 -17 l187 -3 3 -452 2 -453 85 0 85 0 2
453 3 452 190 5 c117 3 190 9 190 15 0 6 -164 11 -467 13 -409 2 -468 0 -468
-13z M1160 500 l0 -470 85 0 85 0 0 470 0 470 -85 0 -85 0 0 -470z M1900 760
l0 -210 -247 -2 c-226 -3 -248 -5 -251 -20 -3 -16 16 -18 245 -20 l248 -3 3
-237 2 -238 85 0 85 0 0 470 0 470 -85 0 -85 0 0 -210z M2402 957 c-28 -34
-33 -109 -30 -482 3 -387 6 -413 42 -437 14 -9 790 -11 799 -1 4 3 2 12 -4 20
-9 10 -74 13 -320 13 -307 0 -308 0 -323 22 -13 19 -16 57 -16 220 l0 198 255
0 c248 0 255 1 255 20 0 19 -7 20 -255 20 l-255 0 0 175 c0 162 2 177 20 195
19 19 33 20 325 20 264 0 305 2 305 15 0 13 -50 15 -394 15 -305 0 -396 -3
-404 -13z M3983 943 c-16 -25 -18 -66 -21 -471 l-3 -443 338 3 c317 4 342 5
405 26 117 39 182 104 194 193 19 136 -86 237 -286 276 l-84 17 74 18 c124 30
190 83 206 166 15 75 -29 152 -107 193 -81 41 -150 49 -431 49 l-268 0 -17
-27z m522 -27 c77 -33 115 -86 115 -162 0 -71 -36 -126 -106 -160 -50 -24 -72
-28 -183 -33 -106 -5 -126 -9 -129 -22 -3 -15 15 -17 145 -21 114 -4 159 -9
197 -24 109 -43 164 -125 153 -229 -8 -83 -41 -135 -106 -167 -54 -28 -56 -28
-258 -28 l-203 0 0 394 c0 400 3 437 38 464 26 21 283 11 337 -12z M5143 943
c-16 -25 -18 -63 -21 -415 -2 -253 1 -401 8 -427 20 -75 -4 -71 436 -71 371 0
395 1 392 18 -3 16 -27 17 -313 20 -270 2 -311 4 -327 19 -16 15 -18 36 -18
220 l0 203 256 0 c238 0 255 1 252 18 -3 16 -24 17 -256 20 l-252 2 0 173 c0
134 3 178 14 193 14 18 32 19 322 24 233 4 308 8 312 18 3 9 -80 12 -392 12
l-396 0 -17 -27z M7332 598 c3 -411 3 -407 68 -482 43 -49 115 -84 207 -102
89 -17 248 -18 326 -3 84 17 166 67 204 123 63 93 66 115 71 494 3 337 3 342
-17 342 -19 0 -20 -7 -23 -353 l-3 -352 -33 -68 c-56 -113 -140 -157 -302
-157 -155 0 -247 46 -297 148 l-28 57 -3 363 -3 362 -85 0 -85 0 3 -372z
M8440 955 c0 -12 30 -15 188 -17 l187 -3 3 -452 2 -453 85 0 85 0 0 455 0 455
190 0 c162 0 190 2 190 15 0 13 -58 15 -465 15 -404 0 -465 -2 -465 -15z
M9510 963 c0 -5 90 -126 200 -270 l200 -262 0 -200 0 -201 84 0 85 0 3 212 3
213 193 254 c105 140 192 255 192 257 0 2 -12 4 -27 4 -25 0 -49 -28 -203
-235 -96 -129 -179 -234 -184 -232 -6 2 -90 108 -186 235 l-175 232 -92 0
c-51 0 -93 -3 -93 -7z M12310 938 c-19 -32 -20 -48 -20 -470 l0 -438 85 0 84
0 3 436 3 436 25 20 c23 19 35 20 145 15 179 -7 267 -45 306 -131 34 -75 18
-151 -45 -211 -60 -57 -119 -77 -253 -83 -102 -4 -113 -6 -113 -23 0 -17 9
-19 89 -19 285 0 497 84 531 210 29 108 -46 208 -196 260 -65 23 -85 24 -346
28 l-277 4 -21 -34z M14500 955 c0 -12 30 -15 188 -17 l187 -3 3 -452 2 -453
85 0 85 0 2 453 3 452 188 3 c157 2 187 5 187 17 0 13 -61 15 -465 15 -404 0
-465 -2 -465 -15z M15506 149 c-14 -17 -26 -41 -26 -54 0 -13 12 -37 26 -54
37 -44 91 -44 129 1 32 38 29 81 -11 116 -38 33 -86 30 -118 -9z"/>
</g>
</svg>
